{
	"asset":{
		"generator":"Khronos glTF Blender I/O v3.5.30",
		"version":"2.0"
	},
	"extensionsUsed":[
		"KHR_materials_specular",
		"KHR_materials_ior"
	],
	"scene":0,
	"scenes":[
		{
			"name":"Scene",
			"nodes":[
				0
			]
		}
	],
	"nodes":[
		{
			"mesh":0,
			"name":"Cube.009",
			"rotation":[
				0,
				-1,
				0,
				1.9470718370939721e-07
			]
		}
	],
	"materials":[
		{
			"doubleSided":true,
			"name":"Material.006",
			"pbrMetallicRoughness":{
				"baseColorFactor":[
					0.800000011920929,
					0.800000011920929,
					0.800000011920929,
					1
				],
				"metallicFactor":0,
				"roughnessFactor":0.4000000059604645
			}
		},
		{
			"doubleSided":true,
			"extensions":{
				"KHR_materials_specular":{
					"specularColorFactor":[
						2.371357614441398,
						2.371357614441398,
						2.371357614441398
					]
				},
				"KHR_materials_ior":{
					"ior":1.4500000476837158
				}
			},
			"name":"Material.007",
			"pbrMetallicRoughness":{
				"baseColorFactor":[
					0.0028128325939178467,
					0.007817966863512993,
					0.014021061360836029,
					1
				],
				"roughnessFactor":0
			}
		}
	],
	"meshes":[
		{
			"name":"Cube.011",
			"primitives":[
				{
					"attributes":{
						"POSITION":0,
						"TEXCOORD_0":1,
						"NORMAL":2
					},
					"indices":3,
					"material":0
				},
				{
					"attributes":{
						"POSITION":4,
						"TEXCOORD_0":5,
						"NORMAL":6
					},
					"indices":7,
					"material":1
				}
			]
		}
	],
	"accessors":[
		{
			"bufferView":0,
			"componentType":5126,
			"count":14283,
			"max":[
				8.89324951171875,
				2.8335068225860596,
				9.946708679199219
			],
			"min":[
				-8.89324951171875,
				-2.899383544921875,
				-11.66186237335205
			],
			"type":"VEC3"
		},
		{
			"bufferView":1,
			"componentType":5126,
			"count":14283,
			"type":"VEC2"
		},
		{
			"bufferView":2,
			"componentType":5126,
			"count":14283,
			"type":"VEC3"
		},
		{
			"bufferView":3,
			"componentType":5123,
			"count":60828,
			"type":"SCALAR"
		},
		{
			"bufferView":4,
			"componentType":5126,
			"count":127,
			"max":[
				1.4399226903915405,
				0.7285983562469482,
				9.666081428527832
			],
			"min":[
				-1.4399226903915405,
				-1.1402270793914795,
				5.202425003051758
			],
			"type":"VEC3"
		},
		{
			"bufferView":5,
			"componentType":5126,
			"count":127,
			"type":"VEC2"
		},
		{
			"bufferView":6,
			"componentType":5126,
			"count":127,
			"type":"VEC3"
		},
		{
			"bufferView":7,
			"componentType":5123,
			"count":432,
			"type":"SCALAR"
		}
	],
	"bufferViews":[
		{
			"buffer":0,
			"byteLength":171396,
			"byteOffset":0,
			"target":34962
		},
		{
			"buffer":0,
			"byteLength":114264,
			"byteOffset":171396,
			"target":34962
		},
		{
			"buffer":0,
			"byteLength":171396,
			"byteOffset":285660,
			"target":34962
		},
		{
			"buffer":0,
			"byteLength":121656,
			"byteOffset":457056,
			"target":34963
		},
		{
			"buffer":0,
			"byteLength":1524,
			"byteOffset":578712,
			"target":34962
		},
		{
			"buffer":0,
			"byteLength":1016,
			"byteOffset":580236,
			"target":34962
		},
		{
			"buffer":0,
			"byteLength":1524,
			"byteOffset":581252,
			"target":34962
		},
		{
			"buffer":0,
			"byteLength":864,
			"byteOffset":582776,
			"target":34963
		}
	],
	"buffers":[
		{
			"byteLength":583640,
			"uri":"data:application/octet-stream;base64,"
		}
	]
}
